<svg width="1102" height="121" viewBox="0 0 1102 121" xmlns="http://www.w3.org/2000/svg" fill="#000002">
<path d="M8.89929 95.4108C-1.31871 95.6728 -1.84271 81.1317 8.37529 80.0837C11.6503 79.8217 17.4143 79.6907 56.5833 78.5117C58.1553 78.3807 60.1203 78.3807 61.8233 78.2497C63.5263 72.4857 65.3603 65.6737 66.6703 59.1237C67.4563 53.8837 67.3253 51.7877 57.3693 51.5257C49.9023 51.3947 40.8633 52.7047 32.7413 53.8837C21.8683 55.4557 19.5103 40.7837 30.3833 38.6877C37.5883 37.2467 50.1643 36.8537 57.6313 36.9847C68.1113 37.1157 75.0543 38.9497 78.7223 42.6177C85.7963 49.0367 82.9143 61.3508 80.2943 70.2588C79.5083 72.6168 78.7223 74.9747 78.1983 77.7257C93.6563 77.2017 103.088 76.9397 106.887 77.0707C116.843 77.4637 116.974 92.2668 106.887 92.3978C99.8133 92.3978 88.0233 91.8737 57.1073 93.0527C18.5933 94.7558 11.6503 95.4108 8.89929 95.4108Z" />
<path d="M162.955 72.6167C150.379 73.1407 150.903 57.0277 162.169 57.2897C171.732 57.1587 182.474 56.8967 197.67 56.3727C211.163 55.8487 223.608 54.9317 233.695 54.2767C245.616 53.7527 245.878 70.1278 234.35 69.9967C223.87 69.9967 211.687 70.3897 198.456 70.7827C186.404 71.1757 173.959 72.0927 162.955 72.6167Z" />
<path d="M295.003 110.738C295.003 107.856 295.92 80.3457 295.92 58.7307C295.92 37.5087 295.789 20.3477 295.658 8.42674C295.527 -1.92226 310.068 -2.05325 310.461 8.42674C310.723 14.4527 309.806 24.9328 309.806 44.3208C323.299 45.6307 332.469 47.9887 339.412 51.6567C348.32 56.7657 342.294 69.8658 332.993 65.6738C330.373 64.6258 323.561 61.4817 310.068 59.1237C310.068 91.3497 310.068 104.188 309.544 110.607C308.889 121.611 295.003 121.742 295.003 110.738ZM352.25 24.2777C350.154 19.9547 347.534 17.2037 345.569 15.1077C340.984 10.1297 347.272 4.10374 353.036 8.16475C356.18 10.3917 359.848 14.5837 361.682 18.5137C365.219 26.3737 355.525 30.9588 352.25 24.2777ZM336.661 31.8757C334.696 28.0767 332.338 24.4087 330.373 22.1817C326.181 17.2037 332.731 11.4397 338.102 15.5007C340.722 17.4657 344.259 22.0507 345.962 26.2427C349.237 34.2337 339.936 38.2947 336.661 31.8757Z" />
<path d="M426.684 107.201C421.837 114.275 412.536 108.904 415.68 101.044C420.789 90.1707 440.832 61.7437 448.823 52.9667C455.242 46.5477 464.936 54.9317 459.041 61.4817C456.945 64.6257 454.718 66.5908 453.146 68.6868C437.426 87.4198 435.461 92.3978 426.684 107.201ZM416.859 72.3548C413.584 68.1628 412.012 63.3157 412.405 58.2067C412.929 51.5257 422.492 50.8707 423.147 57.5517C423.54 61.2197 425.374 63.7087 426.553 65.9357C430.352 72.2237 421.575 78.2498 416.859 72.3548ZM400.353 75.4987C397.078 71.0448 395.506 65.1497 396.292 59.9097C397.34 52.9667 406.903 52.5738 407.296 59.5168C407.558 62.7917 408.606 65.9358 410.571 69.0798C414.239 75.6298 404.938 81.5248 400.353 75.4987Z" />
<path d="M516.575 111.917C516.575 108.773 517.492 81.0007 517.492 59.2547C517.492 37.7707 517.361 20.4787 517.23 8.29574C517.099 -2.57726 531.378 -2.70825 532.164 8.29574C532.557 14.4527 531.378 25.1947 531.378 44.7137C545.657 46.0237 554.958 48.3818 561.377 52.1807C570.678 57.2897 564.652 70.5207 555.22 66.1977C552.731 65.1497 545.395 62.0057 531.509 59.6477C531.509 92.1357 531.509 105.105 531.247 111.786C530.854 122.659 516.575 122.921 516.575 111.917Z" />
<path d="M627.129 47.4647C617.435 48.3817 615.994 34.7577 625.557 32.7928C628.046 32.2688 636.43 31.6137 651.757 30.4347C665.381 29.3867 675.075 29.2557 679.66 29.7797C689.747 31.0897 689.092 44.9757 679.136 44.7137C673.634 44.5827 667.346 43.5347 652.281 44.7137C645.207 45.1067 632.762 46.8097 627.129 47.4647ZM603.418 96.5898C593.593 97.3758 592.676 83.0967 602.632 81.5247C605.252 81.1317 621.103 80.0837 645.6 78.7738C645.862 74.9748 646.255 69.9967 645.338 56.8967C644.552 46.8097 659.879 45.6307 660.665 55.4557C660.927 58.2067 660.927 67.2457 660.272 77.9877C683.459 77.0707 698 76.8087 702.978 77.0707C712.803 77.7257 713.065 92.0047 703.109 91.8737C701.144 91.8737 685.293 90.9568 653.591 92.6598C623.068 94.3628 610.23 96.1968 603.418 96.5898Z" />
<path d="M763.893 115.585C754.723 123.052 744.243 111.262 753.806 103.402C774.635 85.9787 797.691 63.8398 809.219 45.2377C817.603 31.0897 815.9 26.8977 802.538 25.7187C790.879 24.6707 777.386 28.0767 767.037 31.0897C756.164 34.1027 752.496 19.6927 763.238 16.1557C771.884 13.6667 790.486 10.5227 803.586 11.3087C828.214 12.6187 836.336 27.9457 824.284 49.6917C816.817 62.9227 794.678 90.4327 763.893 115.585Z" />
<path d="M889.503 47.4647C879.809 48.3817 878.368 34.7577 887.931 32.7928C890.42 32.2688 898.804 31.6137 914.131 30.4347C927.755 29.3867 937.449 29.2557 942.034 29.7797C952.121 31.0897 951.466 44.9757 941.51 44.7137C936.008 44.5827 929.72 43.5347 914.655 44.7137C907.581 45.1067 895.136 46.8097 889.503 47.4647ZM865.792 96.5898C855.967 97.3758 855.05 83.0967 865.006 81.5247C867.626 81.1317 883.477 80.0837 907.974 78.7738C908.236 74.9748 908.629 69.9967 907.712 56.8967C906.926 46.8097 922.253 45.6307 923.039 55.4557C923.301 58.2067 923.301 67.2457 922.646 77.9877C945.833 77.0707 960.374 76.8087 965.352 77.0707C975.177 77.7257 975.439 92.0047 965.483 91.8737C963.518 91.8737 947.667 90.9568 915.965 92.6598C885.442 94.3628 872.604 96.1968 865.792 96.5898Z" />
<path d="M1028.23 110.607C1013.69 110.214 1005.04 101.699 1006.09 88.8607C1007.01 77.3328 1016.97 62.2678 1024.56 51.0017C1032.55 39.2117 1048.67 17.7277 1052.2 14.3217C1060.46 6.59274 1071.72 16.0247 1064.39 24.9327C1054.82 36.0677 1045.52 47.4647 1036.62 59.6477C1025.48 75.7607 1023.52 82.4417 1022.99 84.5378C1020.9 92.1357 1022.73 95.4107 1029.02 95.8037C1040.41 96.5897 1056.13 88.2058 1063.6 77.2018C1060.59 68.0318 1074.74 63.5778 1077.62 72.7477C1078.54 75.8918 1080.63 81.6557 1084.56 86.5027C1088.49 91.4807 1094.26 93.7077 1096.35 94.6247C1106.18 99.0787 1100.54 112.048 1090.19 108.38C1081.94 105.498 1075.26 99.7337 1070.68 91.8737C1060.2 102.878 1042.25 110.869 1028.23 110.607Z" />
</svg>
