<svg xmlns="http://www.w3.org/2000/svg" width="423" height="154" fill="none"><path fill="#000" stroke-width="1" stroke="#fff" d="M35.005 113.056c-2.981.799-5.707-.855-6.459-3.85-.7-2.805.95-5.733 3.884-6.519 2.887-.774 5.78.937 6.481 3.742.705 3.007-1.066 5.866-3.906 6.627Zm-.612-2.474c1.515-.406 2.608-1.815 2.152-3.519-.406-1.515-2.026-2.45-3.54-2.044-1.61.431-2.451 2.026-2.045 3.54.456 1.704 1.777 2.467 3.433 2.023Zm-10.078 33.949c-1.654.646-3.528.844-5.47-.157-1.943-1.002-1.17-3.796 1.024-3.37 4.774 1.156 4.29-2.164 3.469-5.799-.629-2.723-1.786-7.232-2.734-10.58-6.654 2.24-8.042 3.119-9.84 3.601-2.367.634-3.412-2.13-1.16-3.19 1.405-.63 1.641-.693 10.081-3.462-.507-1.893-.995-3.335-1.375-4.755-.634-2.366 2.912-3.52 3.653-1.131.14.52.464 2.108 1.148 4.664 4.898-1.414 7.772-2.235 8.886-2.432 2.49-.363 3.305 2.868.818 3.433-2.202.489-1.78.173-8.888 2.23 1.04 3.881 2.364 8.447 2.904 10.838.87 4.384 1.531 8.366-2.516 10.11Zm-10.215-.256c-.616 2.245-3.893 1.753-3.637-.699.466-4.133 1.852-8.613 2.806-10.543.964-2.084 4.023-1.078 3.24 1.11-.478 1.245-.924 2.987-1.332 4.872-.333 1.408-.797 4.221-1.077 5.26Zm22.785-9.25c-1.88-1.526-3.666-3.076-5.835-4.169-1.955-1.049-.444-3.737 1.732-3.001 2.953.985 5.603 3.115 6.684 4.5 1.385 1.759-.834 4.079-2.581 2.67Zm35.888-4.645c-.612 2.447-3.741 1.56-3.39-.918.663-4.337 5.169-16.299 7.206-20.244 1.21-2.302 4.56-.968 3.496 1.498-.46.935-1.317 2.281-3.416 7.51-1.778 4.535-2.61 7.295-3.896 12.154Zm-4.97-12.111c-1.444-1.034-2.455-2.538-2.757-4.233-.28-1.802 2.023-2.673 2.694-.925.523 1.382 1.392 2.164 2.153 2.923 1.46 1.283-.466 3.372-2.09 2.235Zm-5.586 2.815c-1.53-1.162-2.488-3.036-2.755-4.791-.198-1.874 2.152-2.758 2.789-.95.5 1.489 1.518 2.637 2.22 3.362 1.523 1.52-.627 3.719-2.254 2.379Zm60.042-31.712c-.958-1.113-1.71-2.028-2.91-2.72-1.633-.984-.193-2.993 1.566-2.297 1.411.535 2.846 1.723 3.611 2.685 1.47 1.888-.706 3.993-2.267 2.332Zm-9.984 31.083c-.457-1.704-2.198-8.39-4.075-15.395-1.242-4.638-2.621-9.596-3.496-12.861-.799-2.982 2.987-3.997 3.811-.92.368 1.372 1.72 7.554 2.38 10.015 4.301-.797 7.98-1.834 9.864-2.186 2.976-.443 3.75 3.205.825 3.837l-9.858 1.83c1.03 4.036 3.422 11.258 4.284 14.476.85 3.171-2.886 4.375-3.735 1.204Zm5.557-27.158c-1.043-1.242-2.127-2.068-2.992-2.648-1.504-1.068-.158-3.052 1.481-2.425 1.149.503 2.785 1.688 3.623 2.732 1.47 1.889-.68 4.088-2.112 2.341Zm49.069 12.927c-.87-1.543-2.355-5-5.13-11.004a294.387 294.387 0 0 0-9.545 4.892c-2.344 1.287-3.803-2.076-1.529-3.243.953-.61 2.697-1.484 9.571-4.797-.434-1.05-1.873-3.962-2.683-5.47-3.262 1.838-4.999 3.115-6.223 3.85-2.107 1.223-3.689-1.65-1.847-3.108.539-.449 3.211-2.027 6.592-3.795-.886-1.792-1.781-3.43-2.398-4.786-.975-2.123 2.328-3.617 3.36-1.66.43.848 1.148 2.583 2.196 4.788 3.044-1.323 4.947-1.985 6.357-2.21 2.619-.449 3.665 3.076 1.131 3.653-.662.177-2.786.391-5.972 1.753.851 1.851 2.018 4.126 2.657 5.375 2.571-1.196 6.991-3.446 9.07-4.206 2.445-.909 3.977 2.536 1.532 3.445-1.843.697-4.796 1.792-9.051 3.896.706 1.688 1.613 3.373 2.389 4.94 1.192 2.369 2.464 4.464 3.072 5.975 1.101 2.596-2.271 4.21-3.549 1.712Zm44.29-13.237c-.797-1.46-3.939-7.315-6.134-11.343-2.943 1.701-3.81 2.44-4.564 2.846-2.211 1.404-4.016-1.359-1.903-2.94.939-.657 3.166-1.812 4.864-2.673-.747-1.27-1.626-2.658-2.091-3.447-1.151-2.025 1.637-3.736 2.879-1.938.402.552 1.228 2.309 2.05 3.864 3.275-1.79 9.053-5.216 11.711-2.681 2.417 2.396-1.696 7.302-3.203 8.873-1.804 1.6-4.05-.538-2.379-2.254 1.998-2.007 3.259-3.36 2.592-4.144-.667-.785-2.329.015-7.142 2.877 2.195 4.028 5.342 9.526 6.237 11.163 1.284 2.142-1.8 3.882-2.917 1.797Zm35.821-8.533c-1.907 2.54-5.296.303-3.235-2.228 2.455-3.143 6.283-8.735 8.252-11.799 4.625-6.972 6.079-11.013 3.868-12.45-1.946-1.203-5.489.152-11.224 3.362-2.554 1.446-4.294-1.639-1.837-3.261 3.409-2.233 11.709-6.283 16.005-3.122 3.213 2.335 2.917 5.965-.969 13.043 5.366 3.179 8.85 5.39 10.143 6.617 2.003 1.796.012 4.968-2.246 3.544-.781-.45-4-3.19-9.759-7.075-5.167 7.98-8.031 12.247-8.998 13.369Zm52.164-14.333c-.457-1.703-2.198-8.39-4.075-15.395-1.243-4.638-2.622-9.595-3.497-12.86-.748-2.793 3.086-3.82 3.859-.933.368 1.372 1.72 7.554 2.38 10.015 4.301-.797 7.933-1.821 9.864-2.187 2.928-.43 3.69 3.171.812 3.79-1.35.26-3.853.576-9.845 1.877 1.03 4.036 3.422 11.258 4.285 14.477.799 2.982-2.985 4.198-3.783 1.216ZM361.66 20.66l-16.377 4.388c.038 2.222-.262 4.89-.534 7.093l11.17-2.993c1.988-.533 3.816.043 4.501 2.599l6.404 23.901c.571 2.13-2.357 3.32-3.341 1.352l-21.346 5.72c.18 2.184-2.998 2.63-3.569.5l-6.417-23.95c-.672-2.508.623-3.92 2.564-4.44l6.437-1.725c.312-2.62.513-4.145.534-7.093l-15.95 4.274c-2.083.558-3.005-2.695-.922-3.253l35.971-9.639c2.082-.558 2.957 2.708.875 3.266Zm-2.599 20.024-2.029-7.573a.723.723 0 0 0-.901-.52L336.3 37.904a.754.754 0 0 0-.52.9l2.029 7.573 21.252-5.694Zm3.5 13.063-2.663-9.94-21.252 5.695 2.664 9.94 21.251-5.695Zm53.013-33.126c-.43 1.992-2.388 1.502-4.367 1.119-6.523-1.245-13.057-3.857-20.582-9.602-3.679 8.798-8.092 14.292-12.748 18.685-1.217 1.138-2.582 2.67-4.023 1.078-.642-.69-.766-1.723.123-2.57 7.163-6.586 11.716-13.64 14.289-21.076.601-1.733 3.148-1.503 3.428.299 5.712 4.658 13.946 8.692 22.166 9.837 1.465.166 1.911 1.264 1.714 2.23Zm-12.552 3.515-16.471 4.413c-2.083.558-3.052-2.682-.923-3.253l16.519-4.426c2.13-.57 3.005 2.695.875 3.266Zm6.589 6.605 3.386 12.637c.571 2.13-2.572 3.276-3.426 1.222l-18.933 5.073c.24 2.219-3.007 2.785-3.578.655l-3.386-12.637c-.672-2.509.623-3.921 2.564-4.441l18.932-5.073c1.94-.52 3.769.055 4.441 2.564Zm-.877 10.736-2.562-9.561c-.089-.331-.436-.492-.768-.403l-17.749 4.756a.595.595 0 0 0-.415.72l2.561 9.56 18.933-5.072Z"/></svg>
