<svg xmlns="http://www.w3.org/2000/svg" width="1368" height="622" fill="none"><path fill="#226cff" d="M1209.45 423.905c-31.12 8.071-47.87-4.791-47.61-29.935.52-25.505 19.48-63.419 34.97-93.216 15.69-30.995 48.28-88.202 55.38-97.93 12.36-16.933 30.68-6.233 20.08 11.052-19.14 31.13-38.27 62.539-55.58 95.137-23.16 43.678-27.09 61.614-27.89 66.686-3.24 15.459-.85 29.018 20.73 24.539 28.94-6.306 64.42-38.7 79.57-69.255-7.95-14.813 13.87-28.194 20.6-14.452 3.01 5.974 8.18 18.165 18.28 26.664 10.75 9.454 24.7 11.152 29.33 11.532 15.97 1.69 8.7 25.427-8.66 24.421-18.22-1.042-33.21-9.281-46.87-27.583-22.16 33.416-59.81 63.585-92.33 72.34ZM908.05 364.73c-13.971 5.27-17.897-14.426-4.32-20.699 5.05-2.411 24.163-9.287 54.679-19.388 29.699-9.89 49.031-14.888 57.831-16.336 15.39-2.601 16.45 18.942 1.96 22.137-10.95 2.28-25.319 4.063-57.165 14.784-15.153 4.747-41.16 15.063-52.985 19.502Zm-38.381 115.693c-14.002 5.002-18.292-15.428-3.323-21.785 5.353-2.213 38.015-13.145 93.241-30.189-.95-10.801-.964-23.224-6.596-52.973-2.861-15.277 20.427-22.404 22.925-7.862.914 5.563 3.417 25.075 4.721 53.734 61.543-18.126 88.193-25.294 96.693-26.94 15.06-3.067 18.02 17.984 3.02 21.588-4.08 1.056-39.41 8.26-106.524 29.206-64.661 20.312-90.155 30.219-104.157 35.221ZM638.031 600.537c-14.018 16.291-29.788-.85-17.326-15.299 43.882-50.786 91.732-115.171 113.981-163.579 19.058-41.001 9.748-50.472-20.802-44.85-26.462 4.812-55.381 20.537-77.599 32.758-17.132 9.433-23.756-11.867-6.654-21.862 18.174-10.567 56.657-27.716 84.448-33.453 54.208-11.392 65.194 19.565 44.831 67.183-14.236 33.157-58.055 106.147-120.879 179.102ZM376.145 503.041c-13.582 5.041-16.937-14.811-3.713-20.867 4.92-2.33 23.493-8.891 53.127-18.487 28.843-9.398 47.581-14.07 56.097-15.366 14.898-2.335 15.444 19.321 1.409 22.269-10.604 2.092-24.493 3.624-55.423 13.818-14.709 4.495-40.002 14.388-51.497 18.633ZM336.63 618.544c-13.606 4.771-17.296-15.825-2.729-21.94 5.208-2.126 36.93-12.518 90.534-28.641-.681-10.864-.425-23.341-5.205-53.321-2.425-15.394 20.177-22.133 22.268-7.483.76 5.604 2.748 25.245 3.381 54.052 59.721-17.097 85.562-23.816 93.79-25.316 14.587-2.809 16.981 18.386 2.441 21.735-3.959.987-38.17 7.586-103.315 27.415-62.77 19.236-87.559 28.727-101.165 33.499ZM694.474 269.924c-.989-25.924-1.55-59.765-3.831-101.461-2.268-41.45-4.563-74.424-5.845-97.863 3.202-18.1 21.923-12.582 22.949 1.684.891 11.8.323 27.829 2.563 68.785 25.662-2.094 46.124-.838 60.859 3.754 12.493 3.996 9.698 23.716-3.97 20.678-4.97-1.105-23.297-2.88-54.699-2.501 3.671 67.109 3.181 90.038 3.41 103.202 0 22.798-20.765 21.298-21.436 3.722ZM518.802 340.189c-6.407 14.233-22.357 8.279-17.339-6.2 9.057-25.331 48.618-94.548 64.672-117.243 9.48-13.242 26.076-4.603 17.183 9.637-3.678 5.384-10.037 13.087-28.038 43.317-15.378 26.223-23.38 42.241-36.478 70.489Zm-11.917-72.354c-6.576-6.417-10.207-15.498-9.729-25.528.733-10.655 14.382-15.224 15.851-4.793 1.116 8.245 4.874 13.045 8.074 17.691 6.352 7.887-6.768 19.702-14.196 12.63Zm-33.99 15.216c-6.879-7.197-9.757-18.436-9.015-28.81 1.271-11.063 15.194-15.695 16.399-4.92.862 8.87 4.972 15.857 7.888 20.285 6.401 9.292-8.079 21.704-15.272 13.445ZM265.348 429.5c-.246-7.029-.449-74.199-2.108-121.713-1.649-47.233-3.513-84.78-4.446-111.489-.569-16.306 21.632-21.148 22.475-4.905.745 13.432-.348 32.491 1.282 79.161 28.864-3.829 50.694 1.516 67.143 5.937 13.943 3.866 7.009 26.723-8.275 24.017-5.558-.984-22.535-4.717-57.808-2.525 2.67 76.472 3.671 111.149 3.644 126.176.051 17.277-21.592 22.273-21.907 5.341Zm100.444-213.975c-3.827-6.769-6.782-12.321-12.458-16.679-7.672-6.165 2.699-17.628 11.417-13.123 7.026 3.48 13.358 10.804 16.323 16.638 5.647 11.45-8.852 23.3-15.282 13.164Zm-29.058 22.013c-4.13-7.549-9.003-12.659-12.996-16.272-6.86-6.635 2.963-17.972 11.114-13.902 5.636 3.233 13.073 10.585 16.332 16.918 5.648 11.45-8.832 23.862-14.45 13.256ZM312.597 70.807c-20.072 6.958-26.275-18.62-8.078-23.236 18.743-5.675 35.314-11.028 65.058-20.759 26.425-8.48 43.724-15.243 63.113-22.607 18.765-6.583 26.514 19.453 8.135 24.422-20.652 5.922-37.485 11.35-63.387 19.679-23.63 7.377-43.201 15.093-64.841 22.5ZM13.303 192.323c-14.46 4.684-15.9-17.25-.928-22.889 28.136-10.598 106.125-34.934 113.31-38.53 4.482-15.824 6.692-30.109 8.807-45.254 1.641-12.048-4.084-16.484-22.312-11.568C96.391 78.34 77.497 86.45 60.703 93.69c-15.746 6.669-25.203-19.607-3.812-24.523C71.585 62.8 96.81 53.95 112.336 49.767c18.682-5.088 33.198-6.557 40.69-1.436 12.832 8.167 8.978 32.983 3.776 53.052-1.48 6.078-2.209 11.036-3.877 21.476 36.81-13.632 51.895-18.339 60.322-17.217 18.753 0 15.397 18.74.402 23.04-14.994 4.299-36.589 11.145-100.466 32.154-79.91 26.414-93.834 29.484-99.88 31.487Z"/></svg>